**ABCDEFGHIJKLMNOPQRSTUVWXYZabcdefghijklmnopqrstuvwxyz**************************
**PARASOLID !"#$%&'()*+,-./:;<=>?@[\]^_`{|}~0123456789**************************
**PART1;
MC=unknown;
MC_MODEL=unknown;
MC_ID=unknown;
OS=unknown;
OS_RELEASE=unknown;
FRU=Parasolid 33.0.171;
APPL=Onshape;
SITE=unknown;
USER=unknown;
FORMAT=text;
GUISE=transmit;
KEY=BTGapi::writeModels_.xmt;
FILE=BTGapi::writeModels_.xmt;
DATE=2020-11-02T07:49:08 (UTC);
**PART2;
SCH=SCH_3300171_32001;
USFLD_SIZE=0;
**PART3;
**END_OF_HEADER*****************************************************************
T51 : TRANSMIT FILE created by modeller version 330017123 SCH_3300171_32001_1300
6229 0 12 34 CCCCCCI4 mesh1006 0 I8 polyline1008 0 CCCCCCCDI5 owner1040 0 CCCCCC
I13 boundary_mesh1006 0 I17 boundary_polyline1008 0 CCCA16 index_map_offset0 0 1
 dA9 index_map82 0 A17 node_id_index_map82 0 A20 schema_embedding_map82 0 A5 chi
ld12 0 A14 lowest_node_id0 0 1 dA16 mesh_offset_data206 0 Z1 299 2 3 0 0 0 0 0 0
 1e3 1e-8 0 4 0 1 0 1 1 5 6 7 0 0 0 8 9 0 0 0 0 0 0 0 0 81 255 1 2 291 10 1 11 0
 0 0 12 70 11 CI9 list_type0 0 1 uI10 notransmit0 0 1 lCCCDCCDI12 finger_index0
 0 1 dI12 finger_block1012 0 CZ3 0 4 T1 0 0 8 20 1 13 13 13 255 5 40 0 1 0 14 0
 0 15 0 50 255 6 132 0 14 16 0 0 +-.09 .450000000514 -.449999999179 0 -1 1224606
353822e-28 1 0 0 38 12 CCCCCCCCCCCA17 intersection_data204 0 Z7 245 0 17 18 0 0
 +19 20 21 22 22 23 19 8 CCCCCCCA5 owner12 0 Z8 1 0 1 15 0 24 V0 16 255 9 36 25
 ?26 0 27 18 0 0 1 81 1 25 287 28 9 29 0 30 31 32 17 255 26 0 33 26 26 0 34 9 0
 0 +16 27 29 35 ?36 9 37 38 0 0 1 31 255 18 131 0 9 38 7 0 +0 .450000000514 -.44
9999999179 0 1 -1224606353822e-28 -1 0 0 .09 31 38 126 0 27 39 18 0 +0 .27322330
5 -.376776695 0 .707106782235048 -.707106780138048 -1 0 0 .09 31 39 121 0 37 40
 38 0 +0 .4 .5 0 -1 0 0 0 -1 .05 16 37 22 41 ?42 27 43 39 0 0 1 31 40 118 0 43 4
4 39 0 +0 .07322330470336 -.176776695297 0 -.707106781186548 .707106781186548 0
 -.707106781186548 -.707106781186548 .09 16 43 19 45 ?46 37 17 40 0 0 1 31 44 11
2 0 47 48 40 0 +0 0 0 0 0 -1 -1 0 0 .09 16 47 11 49 ?50 17 51 44 0 0 1 31 48 108
 0 51 0 44 0 +0 0 1.2 0 0 -1 -1 0 0 .09 16 51 5 52 ?53 47 0 48 0 0 1 81 1 52 275
 28 51 54 0 55 56 57 17 53 0 58 53 53 0 59 51 0 0 +15 255 58 8 0 53 60 0 17 59 0
 61 59 59 0 53 51 0 0 -15 61 4 0 59 62 0 14 255 62 3 63 ?0 60 61 5 64 +0 0 0 60
 24 81 1 63 299 65 62 55 0 66 0 67 14 60 7 66 ?62 68 69 5 20 +0 0 62 68 24 50 64
 106 0 62 0 20 0 +-.09 0 1.2 0 0 1 1 0 0 13 24 2 0 0 0 0 0 0 8 14 14 14 37 70 ?7
1 0 33 5 6 -0 0 71 0 24 81 1 70 292 65 14 31 0 0 72 73 14 71 32 72 ?74 14 75 5 1
6 +0 0 74 14 24 15 33 38 0 26 14 0 81 1 72 293 65 71 30 0 70 76 77 14 74 30 76 ?
78 71 79 5 80 +0 0 78 71 24 15 75 247 0 34 71 81 54 255 16 128 0 71 80 6 0 +0 .4
49999999772 -.199999999179 1 0 0 .25 .09 0 0 1 50 80 127 0 74 82 16 0 +0 .4 .45
 0 1 0 0 0 1 51 255 82 123 0 78 19 80 0 +0 .07322330470336 -.176776695297 0 .707
106782235048 -.707106780138048 .09 -1 0 0 14 78 25 83 ?84 74 85 5 82 +0 0 84 74
 24 51 19 119 0 84 86 82 87 +0 .4 .5 0 -1 0 .05 0 0 -1 14 84 20 88 ?68 78 89 5 1
9 +0 0 68 78 24 54 86 115 0 68 20 19 0 +0 .25 0 1 0 0 .25 .09 0 0 1 141 255 87 7
 87 87 19 14 68 15 90 ?60 84 91 5 86 +0 0 60 84 24 51 20 109 0 60 64 86 92 +0 0
 1.2 0 0 -1 .09 -1 0 0 141 92 7 92 92 20 81 1 90 297 65 68 93 0 88 66 94 15 91 2
50 0 46 68 95 17 46 0 91 46 46 0 96 43 0 0 +15 95 16 0 50 68 0 17 50 0 95 50 50
 0 97 47 0 0 +17 97 0 69 97 97 0 50 47 0 0 -15 69 251 0 97 60 98 15 98 12 0 99 6
0 58 17 99 0 98 99 99 0 100 17 0 0 +17 100 0 89 100 100 0 99 17 0 0 -16 17 13 10
1 ?99 43 47 7 0 0 1 81 1 101 278 28 17 102 0 49 93 103 80 255 1 28 104 105 9000
 0 0 0 0 3 6 0 0 0 FFTFTFTTFFFFFF1 81 1 102 259 106 17 0 101 107 108 109 81 1 49
 277 28 47 108 0 56 101 110 81 1 93 279 28 68 111 90 101 45 112 82 255 3 103 4 2
 1 81 1 111 267 106 68 0 93 113 114 115 81 1 45 280 28 43 107 0 93 116 117 82 3
 112 4 2 2 81 1 107 258 106 43 0 45 118 102 119 81 1 116 281 28 84 113 88 45 41
 120 82 3 117 4 3 1 81 1 113 266 106 84 0 116 121 111 122 81 1 88 296 65 84 116
 0 83 90 123 81 1 41 282 28 37 118 0 116 124 125 82 3 120 4 3 2 81 1 118 257 106
 37 0 41 126 107 127 81 1 124 283 28 78 121 83 41 35 128 82 3 125 4 4 1 81 1 121
 265 106 78 0 124 129 113 130 81 1 83 295 65 78 124 0 76 88 131 81 1 35 284 28 2
7 126 0 124 132 133 82 3 128 4 4 2 81 1 126 256 106 27 0 35 29 118 134 81 1 132
 285 28 74 129 76 35 30 135 82 3 133 4 5 1 81 1 129 264 106 74 0 132 136 121 137
 81 1 76 294 65 74 132 0 72 83 138 81 1 30 286 28 71 136 72 132 25 139 82 3 135
 4 5 2 81 1 136 263 106 71 0 30 140 129 141 82 3 139 4 6 2 80 1 106 142 143 9000
 0 0 0 0 3 5 0 0 0 FFTFTFTTFFFFFF2 81 1 140 262 106 14 0 31 54 136 144 83 255 1
 141 8 81 1 31 288 28 14 140 70 25 0 145 81 1 54 261 106 51 0 52 108 140 146 83
 1 144 7 81 1 108 260 106 47 0 49 102 54 147 83 1 146 6 83 1 147 5 82 3 145 4 7
 2 79 255 13 143 BTI/importTag80 1 65 0 148 8001 0 0 0 0 3 5 0 0 0 FFFFTFTFFFFFF
F2 83 3 138 .6 .6 .6 79 15 148 SDL/TYSA_COLOUR83 1 137 9 81 1 29 255 106 9 0 25
 0 126 149 83 1 134 1 83 1 149 0 83 3 131 .6 .6 .6 83 1 130 10 83 1 127 2 83 3 1
23 .6 .6 .6 83 1 122 11 83 1 119 3 81 1 114 268 106 60 0 56 111 150 151 83 1 115
 12 81 1 56 276 28 60 114 66 52 49 152 81 1 150 269 106 62 0 55 114 153 154 83 1
 151 13 81 1 55 274 28 62 150 63 155 52 156 81 1 153 270 106 1 157 158 150 0 159
 83 1 154 14 81 1 157 253 160 1 0 153 0 0 161 81 1 158 271 162 1 153 155 0 0 163
 83 1 159 -1 80 1 162 106 164 9000 0 0 0 0 3 5 0 0 0 FFTFTFTTFFFFFF2 81 1 155 27
3 28 1 158 165 0 55 166 83 1 163 14 81 1 165 289 167 1 155 11 0 0 168 82 3 166 4
 0 3 80 1 167 169 170 8038 0 0 0 0 0 0 0 0 0 TTTTTTTTTTTTTF10 81 1 11 290 169 1
 165 2 0 0 171 98 255 12 168 70 108 117 105 100 32 82 101 103 105 111 110 80 1 1
69 172 173 8017 0 0 0 0 0 0 0 0 0 TTTTTTTTTTTTTF3 84 255 12 171 Fluid Region79 1
3 173 SDL/TYSA_NAME79 14 170 SDL/TYSA_UNAME79 18 164 BTI/importMaxCount80 1 160
 174 175 9000 0 0 0 0 3 5 0 0 0 TTTFFFFFFFFFFF1 82 1 161 15 79 23 175 ONSHAPE_OR
IGINALBODY_ID82 3 156 4 0 2 81 1 66 298 65 60 56 0 90 63 176 82 3 152 4 1 2 83 3
 176 .6 .6 .6 82 3 110 4 1 1 83 1 109 4 79 9 105 BTI/DetId15 89 249 0 100 84 177
 15 177 21 0 42 84 0 17 42 0 177 42 42 0 178 37 0 0 +17 178 0 79 178 178 0 42 37
 0 0 -15 79 31 0 178 74 0 17 96 0 179 96 96 0 46 43 0 0 -15 179 26 0 96 78 0 83
 3 94 .6 .6 .6 15 85 248 0 180 78 179 17 180 0 85 180 180 0 36 27 0 0 -17 36 0 8
1 36 36 0 180 27 0 0 +15 81 33 0 36 71 0 17 34 0 75 34 34 0 26 9 0 0 -83 3 77 .6
 .6 .6 83 3 73 .6 .6 .6 83 3 67 .6 .6 .6 82 3 57 4 0 1 82 3 32 4 6 1 19 15 39 0
 1 0 8 5 S0 40 255 21 21 0 1 21 .00339156170285656 .3810634821761075 ??-12246063
53822e-29 .09 .45 .01525172084849725 .0886982807677776 .452382933614517 .0287453
045383017 .0852860332469525 .459089029991941 .04010598907731845 .080569905300490
5 .470141841313805 .0479790803569029 .0761446508174137 .485928473852995 .0499999
343048213 .0748331916298747 .50008105253576 .0479301837279228 .0761754388750571
 .514237186794011 .0421075667372102 .0795421449514117 .526962062670934 .03152250
232932475 .0842990619574009 .538811491170757 .0159875780233743 .0885686025008102
 .547375070965082 -.000679131168151253 .0899974376349485 .549995387595822 -.0154
4094453613435 .0886655357612642 .547556043063233 -.02852775921225415 .0853590472
90417 .541062963292092 -.03994605532576065 .0806493190542318 .530071791830739 -.
0478975336222956 .0761959728128794 .514346646747622 -.049999642640767 .074833386
5049257 .500189039137739 -.0479987382668784 .0761322607360881 .48599567478285 -.
042246979779611 .0794681867133077 .473256913052134 -.0317568786704638 .084211048
3078642 .461380048457961 -.0162862890714022 .0885141615126231 .452726785720847 -
92819631996337e-31 .09 .45 41 3 CI8 term_use0 0 1 cCZ1 22 H?-92819631996337e-31
 .09 .45 204 2 17 INTERSECTION_DATA17 Intersection data7 uv_type0 0 1 u6 values0
 1 1 fT84 23 4 0 .31 1.570796326794895 .75 .3099745683911435 .3113017192322225 1
.741081662786985 .747617066385483 .612489370739491 .3147139667530475 1.895884426
79604 .740910970008059 .930836555352333 .3194300946995095 2.032665380571095 .729
858158686195 1.285511765010894 .3238553491825865 2.1330578119936 .71407152614700
5 1.572417378220075 .3251668083701255 2.159826419122675 .69991894746424 1.859535
41372494 .323824561124943 2.132415787328315 .685762813205989 2.14033221376709 .3
204578550485885 2.05766628961247 .673037937329066 2.45945979321031 .315700938042
599 1.92863435163892 .661188508829243 2.816125382818495 .31143139749919 1.749383
867176505 .652624929034918 3.15517569462522 .3100025623650515 1.563250353313305
 .650004612404178 3.455543627488805 .311334464238736 1.39837725665626 .652443956
936768 3.74877436599012 .314640952709583 1.24825790718899 .658937036707909 4.067
091865243175 .3193506809457685 1.110911325475636 .669928208169262 4.421365378931
46 .3238040271871205 1.009605425723726 .685653353252378 4.70860818862257 .325166
6134950745 .981770131984626 .699810960862261 4.9962731994679 .323867739263912 1.
00827665524784 .71400432521715 5.27673308480946 .3205318132866925 1.082172855193
096 .726743086947866 5.59499868834896 .315788951692136 1.210176555625572 .738619
951542039 5.9514060349705 .311485838487377 1.38883510104791 .747273214279153 0 .
31 1.570796326794895 .75 74 4 CI16 index_map_offset0 0 1 dCCZ20 13 8 0 0 157 153
 158 31 165 11 2 63 0 0 0 0 0 0 0 0 0 0 0 0 80 1 10 65 181 8040 0 0 0 0 3 5 0 0
 0 TTTFFFFFFFFFFF2 83 3 12 .6 .6 .6 79 17 181 SDL/TYSA_COLOUR_21 0 
